# xmcd CD database file
#
# Track frame offsets:
#	150
#	18623
#	37679
#	51876
#	70243
#	85464
#	99761
#	119561
#	137074
#	158843
#	174432
#
# Disc length: 2477 seconds
#
# Revision: 0
# Processed by: cddbd v1.5.2PL0 Copyright (c) Steve Scherf et al.
# Submitted via: CDex 1.51
#
DISCID=8a09ab0b
DTITLE=Esther O'Connor - Right Here
DYEAR=2006
DGENRE=Blues
TTITLE0=Right Here
TTITLE1=Hold On
TTITLE2=Saturday Man
TTITLE3=All Right Right Now
TTITLE4=Honesty
TTITLE5=Yesterday's Too Late
TTITLE6=Out On The Water
TTITLE7=Chasing Rainbows
TTITLE8=Hope
TTITLE9=Tomorrow's City
TTITLE10=You
EXTD=YEAR: 2006
EXTT0=
EXTT1=
EXTT2=
EXTT3=
EXTT4=
EXTT5=
EXTT6=
EXTT7=
EXTT8=
EXTT9=
EXTT10=
PLAYORDER=
